<svg width="359" height="383" viewBox="0 0 359 383" fill="none" xmlns="http://www.w3.org/2000/svg">
<rect x="0.178467" width="358" height="281.875" rx="30" fill="black"/>
<path d="M68.9792 246.348C69.0422 239.325 75.8674 234.268 82.8818 236.047L165.473 257.003C174.501 259.293 176.923 270.654 169.549 276.118L86.2163 337.86C78.8423 343.323 68.1566 338.084 68.2377 329.045L68.9792 246.348Z" fill="black"/>
<line x1="102.678" y1="99.5523" x2="102.678" y2="185.228" stroke="#FCFAFA" stroke-width="17" stroke-linecap="round"/>
<line x1="140.178" y1="82.1151" x2="140.178" y2="204.603" stroke="#FCFAFA" stroke-width="17" stroke-linecap="round"/>
<line x1="256.178" y1="99.55" x2="256.178" y2="185.231" stroke="#FCFAFA" stroke-width="17" stroke-linecap="round"/>
<line x1="217.678" y1="82.1167" x2="217.678" y2="204.601" stroke="#FCFAFA" stroke-width="17" stroke-linecap="round"/>
<line x1="178.198" y1="67.5858" x2="178.198" y2="217.195" stroke="#FCFAFA" stroke-width="17" stroke-linecap="round"/>
<line x1="294.178" y1="123.764" x2="294.178" y2="161.985" stroke="#FCFAFA" stroke-width="17" stroke-linecap="round"/>
<line x1="67.1785" y1="123.764" x2="67.1785" y2="161.985" stroke="#FCFAFA" stroke-width="17" stroke-linecap="round"/>
<line x1="35.6785" y1="139.267" x2="35.6785" y2="149.389" stroke="#FCFAFA" stroke-width="17" stroke-linecap="round"/>
<line x1="327.678" y1="139.267" x2="327.678" y2="149.389" stroke="#FCFAFA" stroke-width="17" stroke-linecap="round"/>
</svg>
