<svg version="1.1" id="Layer_1" xmlns="http://www.w3.org/2000/svg" xmlns:xlink="http://www.w3.org/1999/xlink" x="0px" y="0px"
	 width="100%" viewBox="0 0 297 289" enable-background="new 0 0 297 289" xml:space="preserve">
<path fill="#FDFDFD" opacity="1.000000" stroke="none" 
	d="
M166.000000,290.000000 
	C110.666664,290.000000 55.833332,290.000000 1.000000,290.000000 
	C1.000000,193.666672 1.000000,97.333336 1.000000,1.000000 
	C100.000000,1.000000 199.000000,1.000000 298.000000,1.000000 
	C298.000000,97.333336 298.000000,193.666672 298.000000,290.000000 
	C254.166672,290.000000 210.333328,290.000000 166.000000,290.000000 
M254.392517,60.479942 
	C253.678085,58.778156 252.963654,57.076370 252.153366,54.725155 
	C247.937698,46.897312 240.717224,45.218750 232.682236,45.219204 
	C174.551254,45.222492 116.420258,45.247158 58.289291,45.220211 
	C42.297508,45.212799 35.007427,52.329014 35.006432,68.267624 
	C35.003677,112.407341 35.013363,156.547058 35.040653,200.686783 
	C35.050850,217.182419 42.274700,224.437546 58.745640,224.542465 
	C65.199867,224.583588 71.654587,224.549194 78.504654,224.549194 
	C78.504654,234.289749 78.420303,243.428848 78.534241,252.565491 
	C78.610497,258.679993 82.825058,261.148163 88.320992,258.421326 
	C89.646217,257.763824 90.866028,256.862488 92.056549,255.969589 
	C104.565170,246.588074 116.943275,237.025543 129.646271,227.915756 
	C132.378799,225.956161 136.262085,224.690140 139.626846,224.665192 
	C170.606094,224.435425 201.588028,224.591385 232.568802,224.503662 
	C236.016052,224.493912 239.593353,224.108002 242.878601,223.123322 
	C249.124771,221.251129 253.153152,215.637878 253.284424,209.585907 
	C253.444733,209.171356 253.605042,208.756790 253.765350,208.342255 
	C253.543854,208.412506 253.322342,208.482773 253.944656,208.019760 
	C254.081055,207.385391 254.217468,206.751022 254.738174,205.374023 
	C254.724533,193.576096 254.710892,181.778168 254.858475,169.087097 
	C254.784729,166.065857 254.710999,163.044601 254.845551,159.130890 
	C254.795166,156.080597 254.744766,153.030304 254.859909,149.066650 
	C254.803085,144.717880 254.746277,140.369095 254.889557,135.174271 
	C254.824387,133.442841 254.759216,131.711395 254.861435,129.140427 
	C254.807983,127.433395 254.754532,125.726372 254.898026,123.349533 
	C254.833755,122.893295 254.769470,122.437050 254.877396,121.060440 
	C254.788208,105.048546 254.699005,89.036659 254.830780,72.180817 
	C254.768967,69.399155 254.707169,66.617485 254.750534,63.329182 
	C254.572678,62.570583 254.394806,61.811985 254.392517,60.479942 
z"/>
<path fill="#2B2B2D" opacity="1.000000" stroke="none" 
	d="
M254.689453,136.020325 
	C254.746277,140.369095 254.803085,144.717880 254.419708,149.644958 
	C254.198761,153.489975 254.417999,156.756668 254.637268,160.023361 
	C254.710999,163.044601 254.784729,166.065857 254.410919,169.662567 
	C253.655228,170.958054 253.082809,171.676575 253.078751,172.398331 
	C253.021088,182.640289 253.004211,192.883026 253.098511,203.124451 
	C253.107727,204.125626 253.916336,205.119431 254.353882,206.116653 
	C254.217468,206.751022 254.081055,207.385391 253.445297,208.445160 
	C252.960938,209.239441 252.975937,209.608307 252.990936,209.977173 
	C253.153152,215.637878 249.124771,221.251129 242.878601,223.123322 
	C239.593353,224.108002 236.016052,224.493912 232.568802,224.503662 
	C201.588028,224.591385 170.606094,224.435425 139.626846,224.665192 
	C136.262085,224.690140 132.378799,225.956161 129.646271,227.915756 
	C116.943275,237.025543 104.565170,246.588074 92.056549,255.969589 
	C90.866028,256.862488 89.646217,257.763824 88.320992,258.421326 
	C82.825058,261.148163 78.610497,258.679993 78.534241,252.565491 
	C78.420303,243.428848 78.504654,234.289749 78.504654,224.549194 
	C71.654587,224.549194 65.199867,224.583588 58.745640,224.542465 
	C42.274700,224.437546 35.050850,217.182419 35.040653,200.686783 
	C35.013363,156.547058 35.003677,112.407341 35.006432,68.267624 
	C35.007427,52.329014 42.297508,45.212799 58.289291,45.220211 
	C116.420258,45.247158 174.551254,45.222492 232.682236,45.219204 
	C240.717224,45.218750 247.937698,46.897312 252.147858,55.418716 
	C252.833878,57.759312 253.525421,59.406349 254.216949,61.053391 
	C254.394806,61.811985 254.572678,62.570583 254.319946,63.784309 
	C254.129532,67.167885 254.369675,70.096321 254.609802,73.024765 
	C254.699005,89.036659 254.788208,105.048546 254.527985,121.568741 
	C254.352737,122.724472 254.526917,123.371902 254.701080,124.019341 
	C254.754532,125.726372 254.807983,127.433395 254.443726,129.661850 
	C254.247162,132.128952 254.468307,134.074646 254.689453,136.020325 
M79.438202,126.949570 
	C79.788246,126.522537 80.138298,126.095512 80.488342,125.668488 
	C79.914757,125.438148 79.341179,125.207809 78.382446,124.416603 
	C76.422882,123.106720 74.099754,120.432915 72.596176,120.833710 
	C70.734802,121.329865 68.497902,124.266235 68.281425,126.342155 
	C67.698189,131.935059 68.172310,137.631943 68.087364,143.285461 
	C68.036400,146.677628 69.094795,149.388260 72.650085,149.951157 
	C76.204430,150.513931 78.170418,148.371262 79.426376,145.289536 
	C79.947662,145.276352 80.925529,145.268677 80.925766,145.249191 
	C80.982758,140.532318 81.064972,135.810669 80.864876,131.101105 
	C80.833626,130.365479 79.508492,129.684830 78.518883,128.342392 
	C78.609352,127.901665 78.699821,127.460930 79.438202,126.949570 
M183.157532,127.915253 
	C178.031143,126.068451 179.343719,129.896225 179.019882,132.477524 
	C178.841385,133.900452 178.156693,136.463806 177.749466,136.454071 
	C175.504303,136.400345 173.656677,135.493637 173.961288,132.538391 
	C174.180420,130.412659 174.309586,128.180969 173.878265,126.122398 
	C173.633240,124.952972 172.179291,124.036850 171.077423,122.342934 
	C171.146484,121.892380 171.215546,121.441833 172.027084,120.746910 
	C172.202148,113.053993 172.387695,105.361237 172.497574,97.667389 
	C172.500626,97.453667 171.692261,97.228355 171.039444,96.114365 
	C171.012848,93.951691 170.917526,91.787186 170.974762,89.626732 
	C171.075989,85.805458 170.363998,82.127579 165.774429,82.156380 
	C161.350815,82.184135 161.020386,85.893959 161.018631,89.435959 
	C161.003494,120.049370 160.967300,150.662766 160.904053,181.276123 
	C160.897141,184.622635 161.528778,187.453384 165.639313,187.356415 
	C169.324448,187.269470 170.852020,184.939499 170.926926,181.445267 
	C171.015900,177.293686 171.128723,173.142624 171.983734,168.761688 
	C172.324326,165.087280 172.666214,161.412979 173.004913,157.738388 
	C173.164215,156.010056 173.317352,154.281143 173.421783,153.123413 
	C175.654205,157.560287 177.847778,161.920013 179.632126,165.466339 
	C181.163681,165.466339 181.946564,165.449326 182.728378,165.471024 
	C183.548889,165.493759 184.368378,165.553619 185.894791,165.611160 
	C191.696686,166.769592 194.536377,165.153519 194.568298,160.142975 
	C194.675415,143.329742 194.578827,126.515228 194.564194,109.701202 
	C194.561066,106.097748 192.791718,103.788086 189.186905,103.995598 
	C185.782898,104.191551 183.983078,106.366394 184.027008,110.041763 
	C184.098511,116.027885 183.931076,122.016853 183.157532,127.915253 
M111.473984,89.960854 
	C111.487114,111.734070 111.501839,133.507278 111.512581,155.280502 
	C111.516769,163.756744 111.515312,172.232986 111.509659,180.709229 
	C111.507324,184.209763 112.424820,187.275177 116.546371,187.310944 
	C120.494431,187.345200 121.925659,184.644211 121.923782,180.974380 
	C121.923103,179.655167 122.089584,178.335846 122.651291,177.388855 
	C122.896393,177.608414 123.128265,177.846802 123.395546,178.034851 
	C123.465584,178.084122 123.758926,177.977417 123.759003,177.941956 
	C123.774330,170.658676 123.795097,163.375092 123.705101,156.092880 
	C123.700569,155.726486 122.733521,155.371994 122.009773,154.204514 
	C122.084274,151.165848 122.158775,148.127182 122.947083,144.864929 
	C122.706299,144.222916 122.465515,143.580902 122.018738,142.039825 
	C122.079483,137.764465 122.140221,133.489105 123.004074,128.834763 
	C122.739540,126.517128 122.474998,124.199486 122.005844,120.996490 
	C122.075912,117.348427 122.145981,113.700371 122.917641,109.871536 
	C122.681526,108.917816 122.445404,107.964104 121.999863,106.092751 
	C121.968704,100.500801 122.223763,94.885498 121.770332,89.328003 
	C121.579849,86.993355 120.447433,83.927994 118.702591,82.789070 
	C117.361633,81.913773 114.391548,83.534332 111.438034,84.121559 
	C110.118134,85.722656 107.482689,87.269089 111.473984,89.960854 
M146.888245,125.500038 
	C146.863052,118.837891 147.022018,112.167351 146.719025,105.517860 
	C146.603241,102.976921 145.771851,100.177284 142.134155,100.311813 
	C138.828400,100.434074 136.885818,102.124367 136.354477,105.387688 
	C136.248260,106.040138 136.270996,106.716911 136.269272,107.382561 
	C136.221664,125.870972 136.172653,144.359375 136.139633,162.847824 
	C136.132828,166.656525 136.902161,170.220474 141.663147,170.052933 
	C145.935669,169.902573 146.855164,166.725830 146.842102,162.979370 
	C146.799759,150.819778 146.865082,138.659836 146.888245,125.500038 
M89.549454,107.484200 
	C89.479286,124.803078 89.431465,142.122086 89.321770,159.440720 
	C89.297211,163.319046 90.695061,166.304153 94.851479,166.162033 
	C98.731705,166.029327 99.815956,163.036270 99.805618,159.409058 
	C99.759109,143.086517 99.953712,126.761681 99.701363,110.443237 
	C99.667480,108.252342 98.037209,104.913231 96.322739,104.256927 
	C94.666763,103.623009 91.946281,105.769943 89.549454,107.484200 
M206.015152,125.137619 
	C206.022614,131.286148 206.048233,137.434738 206.030563,143.583206 
	C206.020432,147.114548 206.998779,150.123077 211.075363,150.199417 
	C215.045837,150.273773 216.463684,147.478714 216.500214,143.885330 
	C216.557648,138.236008 216.537827,132.585922 216.565903,126.936241 
	C216.581451,123.807205 215.538773,120.778168 212.241730,120.761200 
	C210.207458,120.750732 208.161362,123.037697 206.015152,125.137619 
M232.398941,128.973083 
	C231.019608,129.448349 228.854584,129.549820 228.415634,130.472458 
	C227.319107,132.777344 225.986694,135.805344 226.697250,137.873871 
	C227.279831,139.569748 231.203979,141.701904 232.687180,141.134048 
	C234.929138,140.275696 237.511108,137.351257 237.729630,135.090378 
	C237.906570,133.259476 234.813797,131.112564 232.398941,128.973083 
M46.860924,133.769089 
	C46.693726,137.472260 47.785328,140.955307 51.850719,140.922867 
	C54.002365,140.905701 56.946301,138.731049 58.080688,136.713913 
	C59.736790,133.769073 58.077328,130.703415 55.013363,129.335114 
	C51.292721,127.673546 48.640820,129.447220 46.860924,133.769089 
M181.581406,222.997070 
	C189.370255,222.997070 197.159103,222.997070 204.947952,222.997070 
	C204.944183,222.770309 204.940399,222.543533 204.936630,222.316772 
	C194.362961,222.316772 183.789291,222.316772 173.215637,222.316772 
	C173.211761,222.543427 173.207886,222.770065 173.204025,222.996719 
	C175.674973,222.996719 178.145905,222.996719 181.581406,222.997070 
M171.277252,47.998035 
	C173.133102,47.998035 174.988937,47.998035 176.844788,47.998035 
	C176.839172,47.745087 176.833572,47.492138 176.827957,47.239189 
	C166.911575,47.239189 156.995178,47.239189 147.078796,47.239189 
	C147.075577,47.492020 147.072357,47.744850 147.069153,47.997681 
	C154.824326,47.997681 162.579514,47.997681 171.277252,47.998035 
M123.416618,97.483582 
	C123.416618,97.483582 123.526199,97.417664 123.416618,97.483582 
M172.589706,173.516861 
	C172.589706,173.516861 172.479431,173.583878 172.589706,173.516861 
M172.589417,177.516373 
	C172.589417,177.516373 172.479294,177.582886 172.589417,177.516373 
z"/>
<path fill="#383838" opacity="1.000000" stroke="none" 
	d="
M254.546021,205.745331 
	C253.916336,205.119431 253.107727,204.125626 253.098511,203.124451 
	C253.004211,192.883026 253.021088,182.640289 253.078751,172.398331 
	C253.082809,171.676575 253.655228,170.958054 254.330307,170.109131 
	C254.710892,181.778168 254.724533,193.576096 254.546021,205.745331 
z"/>
<path fill="#383838" opacity="1.000000" stroke="none" 
	d="
M254.741394,159.577118 
	C254.417999,156.756668 254.198761,153.489975 254.336945,150.101654 
	C254.744766,153.030304 254.795166,156.080597 254.741394,159.577118 
z"/>
<path fill="#383838" opacity="1.000000" stroke="none" 
	d="
M254.720306,72.602791 
	C254.369675,70.096321 254.129532,67.167885 254.267365,64.037628 
	C254.707169,66.617485 254.768967,69.399155 254.720306,72.602791 
z"/>
<path fill="#383838" opacity="1.000000" stroke="none" 
	d="
M254.789505,135.597290 
	C254.468307,134.074646 254.247162,132.128952 254.360031,130.081619 
	C254.759216,131.711395 254.824387,133.442841 254.789505,135.597290 
z"/>
<path fill="#383838" opacity="1.000000" stroke="none" 
	d="
M254.304733,60.766663 
	C253.525421,59.406349 252.833878,57.759312 252.195770,55.743427 
	C252.963654,57.076370 253.678085,58.778156 254.304733,60.766663 
z"/>
<path fill="#383838" opacity="1.000000" stroke="none" 
	d="
M254.799561,123.684433 
	C254.526917,123.371902 254.352737,122.724472 254.441864,122.028923 
	C254.769470,122.437050 254.833755,122.893295 254.799561,123.684433 
z"/>
<path fill="#383838" opacity="1.000000" stroke="none" 
	d="
M253.137680,209.781540 
	C252.975937,209.608307 252.960938,209.239441 253.023376,208.711807 
	C253.322342,208.482773 253.543854,208.412506 253.765350,208.342255 
	C253.605042,208.756790 253.444733,209.171356 253.137680,209.781540 
z"/>
<path fill="#F8F8F8" opacity="1.000000" stroke="none" 
	d="
M122.233276,145.088516 
	C122.158775,148.127182 122.084274,151.165848 122.020271,155.068085 
	C122.080437,162.959961 122.130104,169.988281 122.179771,177.016586 
	C122.089584,178.335846 121.923103,179.655167 121.923782,180.974380 
	C121.925659,184.644211 120.494431,187.345200 116.546371,187.310944 
	C112.424820,187.275177 111.507324,184.209763 111.509659,180.709229 
	C111.515312,172.232986 111.516769,163.756744 111.512581,155.280502 
	C111.501839,133.507278 111.487114,111.734070 111.520622,89.196320 
	C111.760155,86.969521 111.953041,85.507248 112.145935,84.044975 
	C114.391548,83.534332 117.361633,81.913773 118.702591,82.789070 
	C120.447433,83.927994 121.579849,86.993355 121.770332,89.328003 
	C122.223763,94.885498 121.968704,100.500801 122.013977,106.847923 
	C122.090744,108.419502 122.153389,109.235901 122.216042,110.052307 
	C122.145981,113.700371 122.075912,117.348427 122.018806,121.799850 
	C122.088165,124.806725 122.144569,127.010231 122.200974,129.213745 
	C122.140221,133.489105 122.079483,137.764465 122.038002,142.844574 
	C122.115936,144.129044 122.174606,144.608780 122.233276,145.088516 
z"/>
<path fill="#F7F7F7" opacity="1.000000" stroke="none" 
	d="
M171.284607,120.991280 
	C171.215546,121.441833 171.146484,121.892380 171.080750,123.134850 
	C171.133133,138.948288 171.182175,153.969818 171.231216,168.991333 
	C171.128723,173.142624 171.015900,177.293686 170.926926,181.445267 
	C170.852020,184.939499 169.324448,187.269470 165.639313,187.356415 
	C161.528778,187.453384 160.897141,184.622635 160.904053,181.276123 
	C160.967300,150.662766 161.003494,120.049370 161.018631,89.435959 
	C161.020386,85.893959 161.350815,82.184135 165.774429,82.156380 
	C170.363998,82.127579 171.075989,85.805458 170.974762,89.626732 
	C170.917526,91.787186 171.012848,93.951691 171.066605,97.022743 
	C171.157379,105.617844 171.220993,113.304558 171.284607,120.991280 
z"/>
<path fill="#F0F0F1" opacity="1.000000" stroke="none" 
	d="
M146.888580,126.000031 
	C146.865082,138.659836 146.799759,150.819778 146.842102,162.979370 
	C146.855164,166.725830 145.935669,169.902573 141.663147,170.052933 
	C136.902161,170.220474 136.132828,166.656525 136.139633,162.847824 
	C136.172653,144.359375 136.221664,125.870972 136.269272,107.382561 
	C136.270996,106.716911 136.248260,106.040138 136.354477,105.387688 
	C136.885818,102.124367 138.828400,100.434074 142.134155,100.311813 
	C145.771851,100.177284 146.603241,102.976921 146.719025,105.517860 
	C147.022018,112.167351 146.863052,118.837891 146.888580,126.000031 
z"/>
<path fill="#F0F0F0" opacity="1.000000" stroke="none" 
	d="
M89.621429,107.089752 
	C91.946281,105.769943 94.666763,103.623009 96.322739,104.256927 
	C98.037209,104.913231 99.667480,108.252342 99.701363,110.443237 
	C99.953712,126.761681 99.759109,143.086517 99.805618,159.409058 
	C99.815956,163.036270 98.731705,166.029327 94.851479,166.162033 
	C90.695061,166.304153 89.297211,163.319046 89.321770,159.440720 
	C89.431465,142.122086 89.479286,124.803078 89.621429,107.089752 
z"/>
<path fill="#EFEFF0" opacity="1.000000" stroke="none" 
	d="
M183.864502,128.004623 
	C183.931076,122.016853 184.098511,116.027885 184.027008,110.041763 
	C183.983078,106.366394 185.782898,104.191551 189.186905,103.995598 
	C192.791718,103.788086 194.561066,106.097748 194.564194,109.701202 
	C194.578827,126.515228 194.675415,143.329742 194.568298,160.142975 
	C194.536377,165.153519 191.696686,166.769592 185.549927,165.205078 
	C184.790497,162.755569 184.100952,160.723419 184.016327,158.666412 
	C183.815506,153.785309 183.901428,148.892426 183.958633,143.572754 
	C183.988022,141.092819 183.930252,139.044449 183.954346,136.552521 
	C183.978958,133.407516 183.921738,130.706070 183.864502,128.004623 
z"/>
<path fill="#252526" opacity="1.000000" stroke="none" 
	d="
M183.511017,127.959938 
	C183.921738,130.706070 183.978958,133.407516 183.590637,136.642212 
	C181.499878,139.652512 180.805908,142.028366 183.871475,144.004303 
	C183.901428,148.892426 183.815506,153.785309 184.016327,158.666412 
	C184.100952,160.723419 184.790497,162.755569 185.196686,165.198135 
	C184.368378,165.553619 183.548889,165.493759 182.728378,165.471024 
	C181.946564,165.449326 181.163681,165.466339 179.632126,165.466339 
	C177.847778,161.920013 175.654205,157.560287 173.421783,153.123413 
	C173.317352,154.281143 173.164215,156.010056 173.004913,157.738388 
	C172.666214,161.412979 172.324326,165.087280 171.607483,168.876511 
	C171.182175,153.969818 171.133133,138.948288 171.176941,123.466705 
	C172.179291,124.036850 173.633240,124.952972 173.878265,126.122398 
	C174.309586,128.180969 174.180420,130.412659 173.961288,132.538391 
	C173.656677,135.493637 175.504303,136.400345 177.749466,136.454071 
	C178.156693,136.463806 178.841385,133.900452 179.019882,132.477524 
	C179.343719,129.896225 178.031143,126.068451 183.511017,127.959938 
z"/>
<path fill="#F1F1F1" opacity="1.000000" stroke="none" 
	d="
M206.067856,124.715424 
	C208.161362,123.037697 210.207458,120.750732 212.241730,120.761200 
	C215.538773,120.778168 216.581451,123.807205 216.565903,126.936241 
	C216.537827,132.585922 216.557648,138.236008 216.500214,143.885330 
	C216.463684,147.478714 215.045837,150.273773 211.075363,150.199417 
	C206.998779,150.123077 206.020432,147.114548 206.030563,143.583206 
	C206.048233,137.434738 206.022614,131.286148 206.067856,124.715424 
z"/>
<path fill="#F2F2F2" opacity="1.000000" stroke="none" 
	d="
M78.873001,144.989319 
	C78.170418,148.371262 76.204430,150.513931 72.650085,149.951157 
	C69.094795,149.388260 68.036400,146.677628 68.087364,143.285461 
	C68.172310,137.631943 67.698189,131.935059 68.281425,126.342155 
	C68.497902,124.266235 70.734802,121.329865 72.596176,120.833710 
	C74.099754,120.432915 76.422882,123.106720 78.472794,125.033485 
	C78.638855,126.106979 78.714577,126.563591 78.790298,127.020203 
	C78.699821,127.460930 78.609352,127.901665 78.532578,129.116730 
	C78.655182,134.923813 78.764091,139.956573 78.873001,144.989319 
z"/>
<path fill="#EFEFF0" opacity="1.000000" stroke="none" 
	d="
M232.785141,129.039444 
	C234.813797,131.112564 237.906570,133.259476 237.729630,135.090378 
	C237.511108,137.351257 234.929138,140.275696 232.687180,141.134048 
	C231.203979,141.701904 227.279831,139.569748 226.697250,137.873871 
	C225.986694,135.805344 227.319107,132.777344 228.415634,130.472458 
	C228.854584,129.549820 231.019608,129.448349 232.785141,129.039444 
z"/>
<path fill="#EFEFF1" opacity="1.000000" stroke="none" 
	d="
M46.940559,133.368225 
	C48.640820,129.447220 51.292721,127.673546 55.013363,129.335114 
	C58.077328,130.703415 59.736790,133.769073 58.080688,136.713913 
	C56.946301,138.731049 54.002365,140.905701 51.850719,140.922867 
	C47.785328,140.955307 46.693726,137.472260 46.940559,133.368225 
z"/>
<path fill="#252526" opacity="1.000000" stroke="none" 
	d="
M171.655853,120.869095 
	C171.220993,113.304558 171.157379,105.617844 171.178009,97.469788 
	C171.692261,97.228355 172.500626,97.453667 172.497574,97.667389 
	C172.387695,105.361237 172.202148,113.053993 171.655853,120.869095 
z"/>
<path fill="#212123" opacity="1.000000" stroke="none" 
	d="
M122.415527,177.202728 
	C122.130104,169.988281 122.080437,162.959961 122.122696,155.471802 
	C122.733521,155.371994 123.700569,155.726486 123.705101,156.092880 
	C123.795097,163.375092 123.774330,170.658676 123.759003,177.941956 
	C123.758926,177.977417 123.465584,178.084122 123.395546,178.034851 
	C123.128265,177.846802 122.896393,177.608414 122.415527,177.202728 
z"/>
<path fill="#212121" opacity="1.000000" stroke="none" 
	d="
M79.149689,145.139435 
	C78.764091,139.956573 78.655182,134.923813 78.663971,129.434906 
	C79.508492,129.684830 80.833626,130.365479 80.864876,131.101105 
	C81.064972,135.810669 80.982758,140.532318 80.925766,145.249191 
	C80.925529,145.268677 79.947662,145.276352 79.149689,145.139435 
z"/>
<path fill="#1F1F1F" opacity="1.000000" stroke="none" 
	d="
M181.099121,222.996887 
	C178.145905,222.996719 175.674973,222.996719 173.204025,222.996719 
	C173.207886,222.770065 173.211761,222.543427 173.215637,222.316772 
	C183.789291,222.316772 194.362961,222.316772 204.936630,222.316772 
	C204.940399,222.543533 204.944183,222.770309 204.947952,222.997070 
	C197.159103,222.997070 189.370255,222.997070 181.099121,222.996887 
z"/>
<path fill="#313133" opacity="1.000000" stroke="none" 
	d="
M170.805969,47.997856 
	C162.579514,47.997681 154.824326,47.997681 147.069153,47.997681 
	C147.072357,47.744850 147.075577,47.492020 147.078796,47.239189 
	C156.995178,47.239189 166.911575,47.239189 176.827957,47.239189 
	C176.833572,47.492138 176.839172,47.745087 176.844788,47.998035 
	C174.988937,47.998035 173.133102,47.998035 170.805969,47.997856 
z"/>
<path fill="#222224" opacity="1.000000" stroke="none" 
	d="
M122.602524,129.024261 
	C122.144569,127.010231 122.088165,124.806725 122.121117,122.242531 
	C122.474998,124.199486 122.739540,126.517128 122.602524,129.024261 
z"/>
<path fill="#1D1D1D" opacity="1.000000" stroke="none" 
	d="
M111.791985,84.083267 
	C111.953041,85.507248 111.760155,86.969521 111.399605,88.756317 
	C107.482689,87.269089 110.118134,85.722656 111.791985,84.083267 
z"/>
<path fill="#222224" opacity="1.000000" stroke="none" 
	d="
M122.566841,109.961922 
	C122.153389,109.235901 122.090744,108.419502 122.118690,107.306740 
	C122.445404,107.964104 122.681526,108.917816 122.566841,109.961922 
z"/>
<path fill="#212121" opacity="1.000000" stroke="none" 
	d="
M79.114250,126.984886 
	C78.714577,126.563591 78.638855,126.106979 78.665367,125.313919 
	C79.341179,125.207809 79.914757,125.438148 80.488342,125.668488 
	C80.138298,126.095512 79.788246,126.522537 79.114250,126.984886 
z"/>
<path fill="#212123" opacity="1.000000" stroke="none" 
	d="
M122.590179,144.976715 
	C122.174606,144.608780 122.115936,144.129044 122.140999,143.294098 
	C122.465515,143.580902 122.706299,144.222916 122.590179,144.976715 
z"/>
<path fill="#222224" opacity="1.000000" stroke="none" 
	d="
M123.471405,97.450623 
	C123.526199,97.417664 123.416618,97.483582 123.471405,97.450623 
z"/>
<path fill="#252526" opacity="1.000000" stroke="none" 
	d="
M172.534576,173.550369 
	C172.479431,173.583878 172.589706,173.516861 172.534576,173.550369 
z"/>
<path fill="#252526" opacity="1.000000" stroke="none" 
	d="
M172.534363,177.549622 
	C172.479294,177.582886 172.589417,177.516373 172.534363,177.549622 
z"/>
<path fill="#2B2B2D" opacity="1.000000" stroke="none" 
	d="
M183.958633,143.572754 
	C180.805908,142.028366 181.499878,139.652512 183.508789,137.085770 
	C183.930252,139.044449 183.988022,141.092819 183.958633,143.572754 
z"/>
</svg>